# AST/ASF file generated using VICON BodyLanguage
# -----------------------------------------------
:version 1.10
:name VICON
:units
  mass 1.0
  length 0.45
  angle deg
:documentation
   .ast/.asf automatically generated from VICON data using
   VICON BodyBuilder and BodyLanguage model FoxedUp or BRILLIANT.MOD
:root
   order TX TY TZ RX RY RZ
   axis XYZ
   position 0 0 0  
   orientation 0 0 0 
:bonedata
  begin
     id 1 
     name lhipjoint
     direction 0.575328 -0.747301 0.332475 
     length 2.40933 
     axis 0 0 0  XYZ
  end
  begin
     id 2 
     name lfemur
     direction 0.34202 -0.939693 0  
     length 7.31453  
     axis 0 0 20  XYZ
    dof rx ry rz
    limits (-160.0 20.0)
           (-70.0 70.0)
           (-60.0 70.0)
  end
  begin
     id 3 
     name ltibia
     direction 0.34202 -0.939693 0   
     length 7.82185   
     axis 0 0 20   XYZ
    dof rx
    limits (-10.0 170.0)
  end
  begin
     id 4 
     name lfoot
     direction 0.0795993 -0.218697 0.972541   
     length 2.19173   
     axis -90 7.62852e-016 20   XYZ
    dof rx rz
    limits (-45.0 90.0)
           (-70.0 20.0)
  end
  begin
     id 5 
     name ltoes
     direction 1.53537e-011 -4.21894e-011 1   
     length 1.10023   
     axis -90 7.62852e-016 20   XYZ
    dof rx
    limits (-90.0 20.0)
  end
  begin
     id 6 
     name rhipjoint
     direction -0.513884 -0.783789 0.348708   
     length 2.29716  
     axis 0 0 0  XYZ 
  end
  begin
     id 7 
     name rfemur
     direction -0.34202 -0.939693 0   
     length 7.59573   
     axis 0 0 -20   XYZ
    dof rx ry rz
    limits (-160.0 20.0)
           (-70.0 70.0)
           (-70.0 60.0)
  end
  begin
     id 8 
     name rtibia
     direction -0.34202 -0.939693 0   
     length 7.66402   
     axis 0 0 -20   XYZ
    dof rx
    limits (-10.0 170.0)
 end
 begin
     id 9 
     name rfoot
     direction -0.137793 -0.378584 0.915253   
     length 2.27056  
     axis -90 -7.62852e-016 -20   XYZ
    dof rx rz
    limits (-45.0 90.0)
           (-20.0 70.0)
  end
  begin
     id 10 
     name rtoes
     direction -1.53493e-011 -4.22159e-011 1   
     length 1.11766   
     axis -90 -7.62852e-016 -20   XYZ
    dof rx
    limits (-90.0 20.0)
  end
  begin
     id 11 
     name lowerback
     direction -0.00732775 0.998356 -0.05685   
     length 2.16513   
     axis 0 0 0   XYZ
    dof rx ry rz
    limits (-20.0 45.0)
           (-30.0 30.0)
           (-30.0 30.0)
  end
  begin
     id 12 
     name upperback
     direction 0.0218081 0.999627 -0.0164647   
     length 2.16755   
     axis 0 0 0   XYZ
    dof rx ry rz
    limits (-20.0 45.0)
           (-30.0 30.0)
           (-30.0 30.0)
  end
  begin
     id 13 
     name thorax
     direction 0.02365 0.999661 0.0108914   
     length 2.16932   
     axis 0 0 0   XYZ
    dof rx ry rz
    limits (-20.0 45.0)
           (-30.0 30.0)
           (-30.0 30.0)
  end
  begin
     id 14 
     name lowerneck
     direction -0.0523929 0.978385 0.200044   
     length 1.63877   
     axis 0 0 0   XYZ
    dof rx ry rz
    limits (-20.0 45.0)
           (-30.0 30.0)
           (-30.0 30.0)
  end
  begin
     id 15 
     name upperneck
     direction 0.0448674 0.981321 -0.187074   
     length 1.69014   
     axis 0 0 0   XYZ
    dof rx ry rz
    limits (-20.0 45.0)
           (-30.0 30.0)
           (-30.0 30.0)
  end
  begin
     id 16
     name head
     direction 0.0199089 0.996118 -0.0857429  
     length 1.70094  
     axis 0 0 0   XYZ
    dof rx ry rz
    limits (-20.0 45.0)
           (-30.0 30.0)
           (-30.0 30.0)
  end
  begin
     id 17 
     name lclavicle
     direction 0.940366 0.30191 -0.156722  
     length 3.37521  
     axis 0 0 0   XYZ
    dof ry rz
    limits (-20.0 10.0)
           (0.0 20.0)
  end
  begin
     id 18 
     name lhumerus
     direction 1 -4.4897e-011 -1.7911e-027   
     length 5.25287   
     axis 180 -30 -90   XYZ
    dof rx ry rz
    limits (-60.0 90.0)
           (-90.0 90.0)
           (-90.0 90.0)
  end
  begin
     id 19
     name lradius
     direction 1 -4.48951e-011 1.04424e-027   
     length 3.51014   
     axis 180 -30 -90   XYZ
    dof rx
    limits (-10.0 170.0)
  end
  begin
     id 20
     name lwrist
     direction 1 -4.48997e-011 -9.5942e-028   
     length 1.75507   
     axis 8.48502e-016 90 90   XYZ
    dof ry
    limits (-180.0 0.0)
 end
  begin
     id 21 
     name lhand
     direction 1 -4.48831e-011 -1.90777e-027   
     length 0.706179   
     axis 1.22306e-015 90 90   XYZ
    dof rx rz
    limits (-90.0 90.0)
           (-45.0 45.0)
  end
  begin
     id 22 
     name lfingers
     direction 1 -4.49108e-011 -3.85244e-027   
     length 0.569339   
     axis 2.44611e-015 90 90   XYZ
    dof rx
    limits (0.0 90.0)
  end
  begin
     id 23
     name lthumb
     direction 0.707107 -6.34953e-011 0.707107   
     length 0.817461   
     axis -90 45 -1.62303e-014   XYZ
    dof rx rz
    limits (-45.0 45.0)
           (-45.0 45.0)
  end
  begin
     id 24 
     name rclavicle
     direction -0.905329 0.382405 -0.184787   
     length 3.30787  
     axis 0 0 0   XYZ 
    dof ry rz
    limits (-10.0 20.0)
           (-20.0 0.0)
  end
  begin
     id 25 
     name rhumerus
     direction -1 -4.48953e-011 -9.15316e-029  
     length 5.28721   
     axis 180 30 90   XYZ
    dof rx ry rz
    limits (-90.0 60.0)
           (-90.0 90.0)
           (-90.0 90.0)
  end
  begin
     id 26 
     name rradius
     direction -1 -4.48987e-011 9.37824e-028   
     length 3.50544   
     axis 180 30 90   XYZ
    dof rx
    limits (-10.0 170.0)
  end
  begin
     id 27 
     name rwrist
     direction -1 -4.48967e-011 -9.58414e-028   
     length 1.75272   
     axis 8.48502e-016 -90 -90   XYZ
    dof ry
    limits (-180.0 0.0)
  end
  begin
     id 28
     name rhand
     direction -1 -4.48904e-011 -1.91266e-027   
     length 0.884996   
     axis 1.22306e-015 -90 -90   XYZ
    dof rx rz
    limits (-90.0 90.0)
           (-45.0 45.0)
  end
  begin
     id 29
     name rfingers
     direction -1 -4.4909e-011 -3.85015e-027   
     length 0.713507   
     axis 2.44611e-015 -90 -90   XYZ
    dof rx
    limits (0.0 90.0)
  end
  begin
     id 30
     name rthumb
     direction -0.707107 -6.34853e-011 0.707107   
     length 1.02446   
     axis -90 -45 1.62303e-014   XYZ
    dof rx rz
    limits (-45.0 45.0)
           (-45.0 45.0)
  end
:hierarchy
  begin
    root lhipjoint rhipjoint lowerback
    lhipjoint lfemur
    lfemur ltibia
    ltibia lfoot
    lfoot ltoes
    rhipjoint rfemur
    rfemur rtibia
    rtibia rfoot
    rfoot rtoes
    lowerback upperback
    upperback thorax
    thorax lowerneck lclavicle rclavicle
    lowerneck upperneck
    upperneck head
    lclavicle lhumerus
    lhumerus lradius
    lradius lwrist
    lwrist lhand lthumb
    lhand lfingers
    rclavicle rhumerus
    rhumerus rradius
    rradius rwrist
    rwrist rhand rthumb
    rhand rfingers
  end

#!OML:ASF F:\twosubjects\two\Thursday\Session 1\justin.ASF
:FULLY-SPECIFIED
:DEGREES
67
root -5.67507 18.0438 -0.54161 3.45675 5.85462 -4.3198
lowerback 0.228057 1.05752 3.60809
upperback -0.0602608 1.43701 4.53154
thorax -0.218181 0.720133 2.6276
lowerneck -19.7167 -3.36455 -9.24533
upperneck 25.5129 -2.37414 2.33063
head 11.8037 -1.6628 2.04438
rclavicle 8.29926e-015 -6.36111e-015
rhumerus -18.5206 37.1909 -94.9014
rradius 78.9428
rwrist -35.2804
rhand -19.4767 4.06852
rfingers 7.12502
rthumb 6.84495 -25.8008
lclavicle 8.29926e-015 -6.36111e-015
lhumerus -27.1287 -31.0976 93.5066
lradius 95.2095
lwrist 25.779
lhand 15.9807 65.4131
lfingers 7.12502
lthumb -139.226 89.5991
rfemur -14.6869 -1.4615 30.2161
rtibia 28.3758
rfoot -17.6327 -10.7373
rtoes -7.82222
lfemur -26.8563 2.97425 -9.84801
ltibia 56.8395
lfoot -6.79158 -2.90077
ltoes -20.0464
68
root -5.65512 18.0357 -0.425885 3.01668 6.01832 -4.2893
lowerback 0.705512 1.0594 3.75046
upperback 0.218661 1.45565 4.44182
thorax -0.193921 0.730058 2.4486
lowerneck -20.2108 -3.45932 -9.58761
upperneck 25.6745 -2.40911 2.57517
head 11.9763 -1.68126 2.186
rclavicle -1.14301e-014 -3.97569e-015
rhumerus -17.9433 36.4106 -94.9804
rradius 77.0718
rwrist -38.7395
rhand -17.3818 2.05878
rfingers 7.12502
rthumb 8.86693 -27.7349
lclavicle -1.14301e-014 -3.97569e-015
lhumerus -27.2376 -29.74 93.384
lradius 94.2084
lwrist 24.4016
lhand 15.411 65.7645
lfingers 7.12502
lthumb -139.762 89.0818
rfemur -13.8824 -1.53196 30.0852
rtibia 28.5402
rfoot -18.2653 -10.6595
rtoes -4.70893
lfemur -26.9858 2.65042 -9.79322
ltibia 55.5878
lfoot -7.31832 -2.14273
ltoes -18.6708
69
root -5.64178 18.0187 -0.311846 2.66891 6.06459 -4.46817
lowerback 1.02833 1.13707 3.96177
upperback 0.432746 1.57067 4.44491
thorax -0.151136 0.788727 2.32859
lowerneck -20.3363 -3.51825 -10.2141
upperneck 25.8084 -2.4276 3.13008
head 12.0729 -1.68058 2.4989
rclavicle -2.32578e-014 4.77083e-015
rhumerus -17.6276 35.4865 -95.1018
rradius 75.1289
rwrist -41.6859
rhand -15.0212 0.328645
rfingers 7.12502
rthumb 11.1443 -29.3554
lclavicle -2.32578e-014 4.77083e-015
lhumerus -27.3488 -28.3216 93.3754
lradius 92.9385
lwrist 22.9002
lhand 14.3096 65.6115
lfingers 7.12502
lthumb -140.799 88.9264
rfemur -13.0754 -1.71756 30.2611
rtibia 28.6532
rfoot -18.804 -10.5196
rtoes -3.41258
lfemur -27.1001 2.62355 -9.49829
ltibia 54.181
lfoot -7.86798 -1.50676
ltoes -16.7717
70
root -5.63009 18.0018 -0.196749 2.67239 6.09436 -4.48347
lowerback 1.13665 1.27094 4.00239
upperback 0.369657 1.76045 4.3104
thorax -0.273531 0.882081 2.16126
lowerneck -20.0389 -3.54697 -10.4609
upperneck 25.9366 -2.55419 3.58057
head 12.0827 -1.70674 2.69473
rclavicle 2.68359e-015 -2.22639e-014
rhumerus -17.814 34.105 -95.6136
rradius 73.1183
rwrist -43.9916
rhand -12.2623 -1.61092
rfingers 7.12502
rthumb 13.8042 -31.1329
lclavicle 2.68359e-015 -2.22639e-014
lhumerus -27.8496 -27.1021 93.3105
lradius 91.6901
lwrist 21.0572
lhand 13.1569 65.3833
lfingers 7.12502
lthumb -141.886 88.8485
rfemur -12.5567 -1.87957 30.2859
rtibia 28.6628
rfoot -19.2987 -10.5237
rtoes -6.05306
lfemur -27.5743 2.63347 -9.38401
ltibia 52.5786
lfoot -8.37259 -1.06242
ltoes -15.7556
71
root -5.6188 17.9958 -0.0765934 2.73126 6.13712 -4.50828
lowerback 1.16651 1.39519 4.04794
upperback 0.355788 1.92873 4.17462
thorax -0.299751 0.965691 1.9926
lowerneck -19.8545 -3.64644 -10.3198
upperneck 25.7767 -2.75198 3.53674
head 11.9961 -1.78403 2.62049
rclavicle 4.02539e-015 1.98785e-014
rhumerus -17.8126 32.7662 -96.0789
rradius 70.9463
rwrist -45.8734
rhand -9.86061 -3.1781
rfingers 7.12502
rthumb 16.1179 -32.5279
lclavicle 4.02539e-015 1.98785e-014
lhumerus -28.215 -25.6596 93.1106
lradius 90.4208
lwrist 18.7223
lhand 12.6006 65.5503
lfingers 7.12502
lthumb -142.411 88.5397
rfemur -12.1037 -1.94664 30.3211
rtibia 28.5669
rfoot -19.6635 -10.67
rtoes -8.09905
lfemur -28.0557 2.49953 -9.23515
ltibia 50.7711
lfoot -8.69614 -0.613434
ltoes -16.2736
72
root -5.6093 17.9993 0.0482033 2.87914 6.18127 -4.56049
lowerback 0.934942 1.50316 4.06654
upperback 0.518024 2.04662 4.13253
thorax -0.00143205 1.02855 1.94709
lowerneck -19.9428 -3.89106 -10.711
upperneck 25.4943 -3.04802 3.84734
head 11.9416 -1.90729 2.74999
rclavicle -6.85807e-015 -7.95139e-016
rhumerus -17.2466 31.8177 -96.109
rradius 68.5479
rwrist -47.5705
rhand -8.27638 -3.43107
rfingers 7.12502
rthumb 17.6429 -32.6506
lclavicle -6.85807e-015 -7.95139e-016
lhumerus -28.026 -23.9023 92.8983
lradius 88.8382
lwrist 16.2739
lhand 11.789 65.6253
lfingers 7.12502
lthumb -143.179 88.2642
rfemur -11.7497 -1.90784 30.4031
rtibia 28.4491
rfoot -19.9024 -10.8361
rtoes -7.90435
lfemur -28.4954 2.24995 -9.00637
ltibia 48.7682
lfoot -8.83815 -0.292854
ltoes -19.1524
73
root -5.60179 18.0041 0.173002 2.86854 6.17374 -4.42072
lowerback 0.976733 1.66366 3.89211
upperback 0.58729 2.2577 3.99169
thorax 0.0443279 1.1346 1.89745
lowerneck -19.9458 -4.12847 -10.9739
upperneck 25.5373 -3.38692 4.14956
head 11.9998 -2.04591 2.85342
rclavicle -1.2921e-014 -6.36111e-015
rhumerus -16.9762 30.4638 -96.2983
rradius 66.048
rwrist -48.4032
rhand -6.64078 -2.95263
rfingers 7.12502
rthumb 19.2163 -32.0233
lclavicle -1.2921e-014 -6.36111e-015
lhumerus -28.0117 -22.3357 92.7795
lradius 87.001
lwrist 13.7912
lhand 10.8859 64.7771
lfingers 7.12502
lthumb -144.034 88.898
rfemur -11.1299 -1.80657 30.2754
rtibia 28.2851
rfoot -20.2159 -11.0475
rtoes -7.6771
lfemur -28.5501 1.9052 -8.89127
ltibia 46.6012
lfoot -9.14962 -0.249214
ltoes -22.8614
74
root -5.58638 18.0041 0.294042 2.89235 6.0453 -4.3713
lowerback 1.05583 1.84208 3.86173
upperback 0.544972 2.50231 3.83679
thorax -0.0390265 1.25573 1.74919
lowerneck -19.9737 -4.16946 -10.7381
upperneck 25.6906 -3.48496 4.02266
head 12.0657 -2.08563 2.75179
rclavicle -5.27276e-014 -5.64548e-014
rhumerus -17.0139 28.9057 -96.6931
rradius 63.6614
rwrist -48.3252
rhand -4.64207 -2.64912
rfingers 7.12502
rthumb 21.1373 -31.5169
lclavicle -5.27276e-014 -5.64548e-014
lhumerus -28.2141 -20.7523 92.6261
lradius 85.0853
lwrist 10.9894
lhand 9.95185 63.4375
lfingers 7.12502
lthumb -144.919 -90.0254
rfemur -10.5636 -1.55884 30.2021
rtibia 28.047
rfoot -20.5528 -11.1733
rtoes -6.87503
lfemur -28.5643 1.79677 -8.77356
ltibia 44.327
lfoot -9.05941 0.0947519
ltoes -21.7464
75
root -5.56867 17.9973 0.419113 3.26997 5.61384 -4.70943
lowerback 0.704571 2.08432 4.21011
upperback 0.431668 2.80947 3.80462
thorax 0.0592371 1.40996 1.53168
lowerneck -19.9218 -4.15981 -10.5466
upperneck 25.7241 -3.49353 3.86014
head 12.0616 -2.09263 2.65746
rclavicle 2.10712e-014 3.4191e-014
rhumerus -17.0114 27.6035 -97.0543
rradius 61.2836
rwrist -48.2143
rhand -2.863 -2.12803
rfingers 7.12502
rthumb 22.8454 -30.7949
lclavicle 2.10712e-014 3.4191e-014
lhumerus -28.4618 -19.0471 92.3817
lradius 83.2131
lwrist 8.40671
lhand 9.80563 63.8105
lfingers 7.12502
lthumb -145.058 89.6199
rfemur -10.4118 -1.02266 30.5326
rtibia 27.7415
rfoot -20.8872 -11.1513
rtoes -6.0362
lfemur -28.9743 2.54219 -8.48184
ltibia 41.9753
lfoot -8.739 0.673033
ltoes -16.4383
76
root -5.55473 17.9948 0.549013 3.50307 5.36003 -4.87352
lowerback 0.550831 2.28974 4.38076
upperback 0.348131 3.07758 3.76169
thorax 0.0720326 1.54363 1.3968
lowerneck -19.5638 -4.27544 -10.7544
upperneck 25.6038 -3.67502 4.01008
head 11.9676 -2.1752 2.72029
rclavicle 4.03533e-014 4.29375e-014
rhumerus -17.0603 26.239 -97.2968
rradius 58.9997
rwrist -48.1345
rhand -1.48016 -1.67731
rfingers 7.12502
rthumb 24.1719 -30.1742
lclavicle 4.03533e-014 4.29375e-014
lhumerus -28.8367 -17.227 92.1952
lradius 81.4642
lwrist 6.15918
lhand 9.97339 64.543
lfingers 7.12502
lthumb -144.899 88.9246
rfemur -10.0239 -0.700316 30.69
rtibia 27.3673
rfoot -21.2741 -11.2186
rtoes -5.49413
lfemur -29.1889 3.07681 -8.37309
ltibia 39.5367
lfoot -8.69149 0.90733
ltoes -16.1565
